:SAMPLES-PER-SECOND 30
:FULLY-SPECIFIED
:DEGREES
329
root  -5.38739 38.4555 -2.30257 -1.48005 -78.0634 1.9639
RightUpLeg  18.0302 -3.77438 11.5165
RightLeg  20.4781 -11.4376 -4.92371
RightFoot  -2.06504 -0.402633 4.83897
RightToes  7.56698e-010 0 -3.6325e-017
Spine  7.55041 3.19862 4.6528
Spine1  5.62113 6.28478 -12.2096
HEad  19.3824 -33.3204 13.8812
LeftShoulder1  3.21302 -8.96268 -19.276
LeftArm  -18.5583 -6.30236 -51.2501
LeftForeArm  3.48372 -27.8996 -5.4184
LeftHand  -1.67401 -3.02803 23.086
RightShoulder  1.65427 3.88256 15.6794
RightArm  -43.2498 12.8997 45.8824
RightForeArm  29.0186 72.886 38.4243
RightHand  -1.77998 6.81726 -17.152
LeftUpLeg  -33.2736 5.13553 -13.4028
LeftLeg  33.7084 11.0383 8.15178
LeftFoot  17.3258 1.29909 -5.31612
LeftToes  -3.13779e-010 -2.47553e-011 -5.36621e-011
330
root  -5.51177 36.9281 -2.34553 2.08688 -78.4398 -1.2906
RightUpLeg  19.0952 -3.42768 11.5941
RightLeg  22.1873 -7.96079 -3.72405
RightFoot  -8.78493 -0.173842 5.05222
RightToes  7.56698e-010 0 -3.6325e-017
Spine  7.99913 3.96845 7.45884
Spine1  4.45414 8.25131 -16.4237
HEad  16.292 -36.5652 16.8776
LeftShoulder1  3.36686 -9.11349 -20.2565
LeftArm  -26.0042 0.487517 -51.8371
LeftForeArm  11.0373 -45.6271 -10.9636
LeftHand  -1.63452 -2.79571 23.1625
RightShoulder  1.55975 3.44069 15.7556
RightArm  -48.1387 8.61297 42.2679
RightForeArm  99.7274 78.3892 113.642
RightHand  -1.51184 4.6445 -17.6508
LeftUpLeg  -33.8699 2.55409 -13.161
LeftLeg  37.9235 9.44682 8.19329
LeftFoot  4.42849 -0.141837 1.13401
LeftToes  -3.13779e-010 -2.47553e-011 -5.36621e-011
331
root  -5.53423 35.5348 -2.37904 0.00109697 -78.0975 -0.792468
RightUpLeg  20.818 -2.11476 11.9482
RightLeg  25.6668 -3.45389 -2.06308
RightFoot  -18.1207 0.0870697 3.8495
RightToes  7.56698e-010 0 -3.6325e-017
Spine  10.0149 3.63379 7.92537
Spine1  4.82807 8.56369 -17.2277
HEad  10.1788 -36.8293 19.4448
LeftShoulder1  3.45073 -9.34725 -20.4343
LeftArm  -27.9484 3.98615 -53.0396
LeftForeArm  17.7097 -62.1148 -20.0614
LeftHand  -1.55724 -2.69285 22.3764
RightShoulder  1.53175 3.44142 15.3139
RightArm  -52.704 7.06779 38.0636
RightForeArm  133.525 68.8477 150.779
RightHand  -1.27815 2.8691 -18.0495
LeftUpLeg  -34.2377 0.0884122 -13.8353
LeftLeg  43.6121 9.56341 10.039
LeftFoot  -6.1864 -0.358962 7.77391
LeftToes  -3.13779e-010 -2.47553e-011 -5.36621e-011
332
root  -5.56801 34.897 -2.4004 -1.96482 -77.5446 -0.440482
RightUpLeg  22.7351 -2.28194 12.7971
RightLeg  27.0518 -3.61513 -2.24187
RightFoot  -23.4683 0.0165933 1.46071
RightToes  7.56698e-010 0 -3.6325e-017
Spine  10.5119 3.10953 6.73395
Spine1  7.35696 7.82034 -14.5646
HEad  4.89192 -34.6571 20.7262
LeftShoulder1  3.4916 -9.39769 -20.6605
LeftArm  -26.5454 2.49612 -53.0625
LeftForeArm  26.3506 -70.1406 -29.6329
LeftHand  -1.4731 -2.67411 21.2473
RightShoulder  1.54103 3.55886 15.0525
RightArm  -54.7547 6.67921 36.1924
RightForeArm  138.967 62.4695 158.258
RightHand  -1.13962 2.08523 -17.7802
LeftUpLeg  -34.783 0.0690462 -14.7257
LeftLeg  47.6081 10.3903 12.3476
LeftFoot  -8.58809 -0.197771 9.94478
LeftToes  -3.13779e-010 -2.47553e-011 -5.36621e-011
333
root  -5.5115 35.4 -2.22139 -0.805812 -78.9984 -1.792
RightUpLeg  22.0713 -2.52523 12.2766
RightLeg  27.6783 -5.71016 -3.49405
RightFoot  -20.3216 0.0104815 2.1683
RightToes  7.56698e-010 0 -3.6325e-017
Spine  9.87634 3.00383 7.09056
Spine1  9.03802 7.37967 -12.7392
HEad  4.36002 -31.251 19.5268
LeftShoulder1  3.43106 -9.39739 -20.1596
LeftArm  -24.7052 -1.10537 -53.4776
LeftForeArm  26.3911 -68.968 -28.1762
LeftHand  -1.37968 -2.32649 20.8162
RightShoulder  1.58952 3.62624 15.572
RightArm  -51.7635 5.93617 39.0061
RightForeArm  138.856 62.8322 157.82
RightHand  -1.1653 2.3537 -17.5658
LeftUpLeg  -34.1329 1.65564 -14.4284
LeftLeg  45.9794 11.5359 12.8722
LeftFoot  -4.48729 -0.504929 8.86737
LeftToes  -3.13779e-010 -2.47553e-011 -5.36621e-011
334
root  -5.14193 36.8558 -1.71646 1.08578 -82.7636 -3.38082
RightUpLeg  17.5312 -1.44045 9.08978
RightLeg  31.1903 -3.01599 -2.118
RightFoot  -6.68735 -0.307114 5.61478
RightToes  7.56698e-010 0 -3.6325e-017
Spine  11.034 2.83297 8.93825
Spine1  7.90458 6.96239 -12.0691
HEad  7.38238 -26.0132 14.5966
LeftShoulder1  3.31705 -9.62212 -18.7379
LeftArm  -24.8843 -3.5509 -55.7684
LeftForeArm  18.5878 -60.9901 -19.1453
LeftHand  -1.43463 -2.19511 21.9548
RightShoulder  1.67844 3.80829 16.296
RightArm  -45.8269 5.49852 44.8346
RightForeArm  131.695 70.2573 147.284
RightHand  -1.26469 3.18229 -17.2636
LeftUpLeg  -30.4904 3.13793 -13.2788
LeftLeg  36.6607 12.6661 10.3596
LeftFoot  3.1462 -0.825527 6.41746
LeftToes  -3.13779e-010 -2.47553e-011 -5.36621e-011
335
root  -4.56432 38.4845 -1.06062 7.39821 -86.5067 -10.2198
RightUpLeg  9.90601 -0.534067 5.18987
RightLeg  38.1665 2.46 1.83414
RightFoot  14.2263 -1.70235 8.00078
RightToes  7.56698e-010 0 -3.6325e-017
Spine  14.3372 2.02315 8.99832
Spine1  5.80475 4.89813 -7.71019
HEad  9.31522 -17.3784 6.32508
LeftShoulder1  3.26442 -9.95424 -17.6347
LeftArm  -25.4888 -5.33476 -58.139
LeftForeArm  11.6026 -49.9958 -12.471
LeftHand  -1.64261 -2.58803 23.8519
RightShoulder  1.76062 4.17847 16.2585
RightArm  -40.8981 8.56448 49.1256
RightForeArm  83.8546 78.8492 94.1177
RightHand  -1.46943 4.66186 -17.1327
LeftUpLeg  -24.3983 2.47723 -11.2352
LeftLeg  23.606 11.4755 5.80882
LeftFoot  12.6407 -0.22397 0.940105
LeftToes  -3.13779e-010 -2.47553e-011 -5.36621e-011
336
root  -4.08626 39.706 -0.485547 40.6458 -88.4557 -44.2446
RightUpLeg  1.0102 -1.48964 2.44799
RightLeg  45.7824 2.74726 2.52642
RightFoot  29.3177 -2.79039 8.15955
RightToes  7.56698e-010 0 -3.6325e-017
Spine  17.0017 0.747062 6.24374
Spine1  5.31688 1.11073 1.36596
HEad  8.10589 -6.40906 -2.7632
LeftShoulder1  3.25302 -10.0036 -17.4491
LeftArm  -22.6111 -8.08335 -57.8924
LeftForeArm  8.01711 -41.7534 -9.3929
LeftHand  -1.8594 -3.1717 25.1272
RightShoulder  1.79196 4.53209 15.5744
RightArm  -37.6335 17.2953 50.2161
RightForeArm  19.4596 66.001 24.6864
RightHand  -1.99351 7.22301 -18.4678
LeftUpLeg  -19.2423 -1.08666 -8.20165
LeftLeg  16.3661 7.28561 2.63089
LeftFoot  19.1618 1.96855 -7.82829
LeftToes  -3.13779e-010 -2.47553e-011 -5.36621e-011
337
root  -3.89064 40.7049 0.0454754 118.749 -88.4116 -122.505
RightUpLeg  -8.37194 -2.64345 0.382109
RightLeg  52.1275 -3.14806 -4.7639
RightFoot  30.7273 -2.11256 5.97681
RightToes  7.56698e-010 0 -3.6325e-017
Spine  17.9376 -0.496472 3.10331
Spine1  5.89438 -2.54956 9.41603
HEad  5.80601 3.49673 -10.0615
LeftShoulder1  3.22994 -9.82557 -17.6107
LeftArm  -18.2812 -10.9516 -54.6337
LeftForeArm  8.35625 -40.8291 -9.12732
LeftHand  -1.95762 -3.4196 25.6865
RightShoulder  1.77332 4.64009 14.9961
RightArm  -36.0751 28.0035 50.8897
RightForeArm  8.16749 44.2766 9.75754
RightHand  -2.65016 9.51846 -20.7793
LeftUpLeg  -16.3452 -5.31899 -5.99384
LeftLeg  20.1126 2.78276 1.41541
LeftFoot  16.7992 3.23438 -13.2887
LeftToes  -3.13779e-010 -2.47553e-011 -5.36621e-011
338
root  -3.9314 41.3169 0.620676 -179.981 -85.2699 175.885
RightUpLeg  -17.2003 -1.14513 -1.70705
RightLeg  56.4011 -7.79746 -12.7156
RightFoot  23.9677 -0.854028 3.24667
RightToes  7.56698e-010 0 -3.6325e-017
Spine  18.42 -1.09875 1.59717
Spine1  6.1582 -3.99862 11.5899
HEad  3.98828 10.222 -14.4803
LeftShoulder1  3.21695 -9.69701 -17.7601
LeftArm  -18.6321 -13.0317 -50.5228
LeftForeArm  10.6955 -46.3131 -10.9592
LeftHand  -1.85634 -2.91052 25.8369
RightShoulder  1.71725 4.46947 14.7382
RightArm  -36.952 33.9105 52.9664
RightForeArm  7.36551 31.9361 6.46913
RightHand  -2.842 9.84275 -21.7523
LeftUpLeg  -13.1319 -7.66932 -6.79758
LeftLeg  31.0806 1.34511 1.30262
LeftFoot  8.22684 2.00429 -11.6693
LeftToes  -3.13779e-010 -2.47553e-011 -5.36621e-011
